<svg width="49" height="42" viewBox="0 0 49 42" fill="none" xmlns="http://www.w3.org/2000/svg">
<g filter="url(#filter0_d_9_73)">
<rect x="4.5" y="0.5" width="40" height="33" fill="#080A11" stroke="white"/>
<path d="M16.3492 10.1099V21.4849H13.8024V10.1099H16.3492ZM20.8258 14.9067V16.8755H15.6383V14.9067H20.8258ZM21.3258 10.1099V12.0864H15.6383V10.1099H21.3258ZM25.2555 20.063L27.5211 10.1099H28.8258L29.3414 11.3442L26.9274 21.4849H25.4977L25.2555 20.063ZM24.3727 10.1099L26.2711 20.1099L25.943 21.4849H24.318L21.8492 10.1099H24.3727ZM30.9586 20.0552L32.8336 10.1099H35.3492L32.8805 21.4849H31.2711L30.9586 20.0552ZM29.6774 10.1099L31.9742 20.1177L31.7086 21.4849H30.2867L27.8336 11.3364L28.3727 10.1099H29.6774Z" fill="white" fill-opacity="0.79"/>
</g>
<defs>
<filter id="filter0_d_9_73" x="0" y="0" width="49" height="42" filterUnits="userSpaceOnUse" color-interpolation-filters="sRGB">
<feFlood flood-opacity="0" result="BackgroundImageFix"/>
<feColorMatrix in="SourceAlpha" type="matrix" values="0 0 0 0 0 0 0 0 0 0 0 0 0 0 0 0 0 0 127 0" result="hardAlpha"/>
<feOffset dy="4"/>
<feGaussianBlur stdDeviation="2"/>
<feComposite in2="hardAlpha" operator="out"/>
<feColorMatrix type="matrix" values="0 0 0 0 0.0705882 0 0 0 0 0.968627 0 0 0 0 0.831373 0 0 0 1 0"/>
<feBlend mode="normal" in2="BackgroundImageFix" result="effect1_dropShadow_9_73"/>
<feBlend mode="normal" in="SourceGraphic" in2="effect1_dropShadow_9_73" result="shape"/>
</filter>
</defs>
</svg>
